<?xml version="1.0" encoding="utf-8"?>
<!-- Generator: Adobe Illustrator 23.0.0, SVG Export Plug-In . SVG Version: 6.00 Build 0)  -->
<svg version="1.1" id="Camada_1" xmlns="http://www.w3.org/2000/svg" xmlns:xlink="http://www.w3.org/1999/xlink" x="0px" y="0px"
	 viewBox="0 0 168.34 90.81" style="enable-background:new 0 0 168.34 90.81;" xml:space="preserve">
<style type="text/css">
	.st0{fill:#901718;}
	.st1{fill:#495661;}
</style>
<path class="st0" d="M70.68,80.12c0,3.34-2.26,5.15-5.76,5.15c-3.21,0-5.87-1.69-5.87-5.81v-2.83c0-4.14,2.64-5.85,5.87-5.85
	c3.5,0,5.76,1.83,5.76,5.17v0.23H68.1c0-2.17-1.16-3.15-3.15-3.15c-1.79,0-3.32,0.85-3.32,3.76v2.51c0,2.91,1.54,3.76,3.32,3.76
	c2,0,3.15-1.03,3.15-3.15h2.58V80.12z"/>
<path class="st0" d="M79.18,85.05V83.9l-1.05,0.57c-0.93,0.49-1.65,0.72-2.64,0.72c-1.78,0-2.98-1.16-2.98-2.85
	c0-2.09,1.63-3.06,3.71-3.06h2.98v-0.59c0-1.29-0.74-1.92-2.05-1.92c-1.37,0-2.17,0.57-2.17,1.75h-2.24v-0.13
	c0-2.26,1.79-3.53,4.39-3.53c2.74,0,4.31,1.37,4.31,3.76v6.44H79.18z M79.18,80.91h-2.66c-1.39,0-1.71,0.65-1.71,1.31
	c0,0.7,0.44,1.12,1.2,1.12c0.63,0,1.16-0.19,1.73-0.49l1.44-0.78V80.91z"/>
<path class="st0" d="M83.72,85.05V75.04h2.3v1.42l0.44-0.44c0.74-0.7,1.48-1.07,2.47-1.07h0.59v2.34h-0.57
	c-0.87,0-1.44,0.17-2.11,0.68l-0.78,0.65v6.42H83.72z"/>
<path class="st0" d="M97.28,85.05V83.9l-1.05,0.57c-0.93,0.49-1.65,0.72-2.64,0.72c-1.79,0-2.98-1.16-2.98-2.85
	c0-2.09,1.63-3.06,3.71-3.06h2.98v-0.59c0-1.29-0.74-1.92-2.05-1.92c-1.37,0-2.17,0.57-2.17,1.75h-2.24v-0.13
	c0-2.26,1.79-3.53,4.39-3.53c2.74,0,4.31,1.37,4.31,3.76v6.44H97.28z M97.28,80.91h-2.66c-1.39,0-1.71,0.65-1.71,1.31
	c0,0.7,0.44,1.12,1.2,1.12c0.63,0,1.16-0.19,1.73-0.49l1.44-0.78V80.91z"/>
<path class="st0" d="M101.83,88.55V75.04h2.24v1.08l1.16-0.63c0.78-0.42,1.5-0.59,2.24-0.59c2.07,0,3.46,1.41,3.46,3.42v3.36
	c0,2.03-1.43,3.48-3.5,3.48c-0.7,0-1.43-0.17-2.2-0.59l-1.14-0.63v4.6H101.83z M108.65,78.61c0-0.99-0.61-1.63-1.56-1.63
	c-0.53,0-0.99,0.15-1.4,0.38l-1.58,0.89v3.57l1.58,0.87c0.42,0.25,0.87,0.4,1.4,0.4c0.95,0,1.56-0.65,1.56-1.63V78.61z"/>
<path class="st0" d="M115.62,72.35c0,0.7-0.55,1.08-1.31,1.08c-0.74,0-1.31-0.38-1.31-1.08v-0.42c0-0.72,0.57-1.1,1.31-1.1
	c0.76,0,1.31,0.38,1.31,1.1V72.35z M113.13,75.04h2.35v10.01h-2.35V75.04z"/>
<path class="st0" d="M126.35,81.41c0,2.51-1.73,3.82-4.33,3.82c-2.58,0-4.31-1.42-4.31-3.91v-2.49c0-2.49,1.73-3.93,4.31-3.93
	c2.6,0,4.33,1.33,4.33,3.84v0.17h-2.22c0-1.42-0.78-2.01-2.11-2.01c-1.31,0-2.07,0.68-2.07,2.13v2.09c0,1.44,0.76,2.13,2.07,2.13
	c1.33,0,2.11-0.57,2.11-1.99h2.22V81.41z"/>
<path class="st0" d="M134.85,85.05V83.9l-1.06,0.63c-0.7,0.44-1.43,0.65-2.22,0.65c-1.96,0-3.15-1.31-3.15-3.25v-6.88h2.32v6.59
	c0,0.87,0.51,1.46,1.33,1.46c0.49,0,0.89-0.19,1.31-0.44l1.46-0.85v-6.76h2.3v10.01H134.85z"/>
<path class="st0" d="M139.03,73.69l2.05-2.77H144l-2.45,2.77H139.03z M139.56,75.04h2.35v10.01h-2.35V75.04z"/>
<path class="st0" d="M146.59,83.99v1.06h-2.24V70.92h2.26v5.24l1.14-0.63c0.78-0.44,1.5-0.59,2.24-0.59c2.07,0,3.46,1.39,3.46,3.44
	v3.36c0,2.01-1.43,3.44-3.5,3.44c-0.72,0-1.43-0.15-2.2-0.59L146.59,83.99z M151.17,78.63c0-0.99-0.61-1.63-1.56-1.63
	c-0.53,0-0.99,0.15-1.4,0.38l-1.58,0.89v3.59l1.58,0.88c0.42,0.23,0.87,0.4,1.4,0.4c0.95,0,1.56-0.65,1.56-1.65V78.63z"/>
<path class="st0" d="M161.9,85.05V83.9l-1.05,0.57c-0.93,0.49-1.65,0.72-2.64,0.72c-1.79,0-2.98-1.16-2.98-2.85
	c0-2.09,1.63-3.06,3.71-3.06h2.98v-0.59c0-1.29-0.74-1.92-2.05-1.92c-1.37,0-2.17,0.57-2.17,1.75h-2.24v-0.13
	c0-2.26,1.79-3.53,4.39-3.53c2.74,0,4.31,1.37,4.31,3.76v6.44H161.9z M161.9,80.91h-2.66c-1.39,0-1.71,0.65-1.71,1.31
	c0,0.7,0.44,1.12,1.2,1.12c0.63,0,1.16-0.19,1.73-0.49l1.44-0.78V80.91z"/>
<polygon class="st1" points="4.18,61.71 4.18,2.26 43.67,2.26 43.67,11.69 14.82,11.69 14.82,26.87 40.63,26.87 40.63,36.3 
	14.82,36.3 14.82,52.2 43.82,52.2 43.82,61.71 "/>
<path class="st1" d="M71.26,61.71c-9.75,0-16.06-4.88-16.06-14.46V27.83h-6.39V19.6h6.39V8.17h9.91V19.6h11.66v8.23H65.11v18.86
	c0,4.95,2.24,6.63,6.96,6.63h4.95v8.39H71.26z"/>
<path class="st1" d="M119.23,48.45c0,8.55-7.35,13.98-18.46,13.98c-10.87,0-18.62-5.91-18.62-16.23v-9.99
	c0-10.63,7.75-17.27,18.62-17.27c10.95,0,18.54,6.32,18.54,17.43v7.43H91.34v2.08c0,6,4,8.63,9.51,8.63c5.44,0,9.11-1.92,9.11-6.48
	h9.27V48.45z M110.2,36.22c0-6-3.51-9.27-9.35-9.27c-5.92,0-9.51,3.28-9.51,9.35v1.04h18.86V36.22z"/>
<path class="st1" d="M164.02,46.37c0,10.54-7.27,16.06-18.23,16.06c-10.87,0-18.14-5.99-18.14-16.46V35.5
	c0-10.47,7.26-16.55,18.14-16.55c10.96,0,18.23,5.6,18.23,16.15v0.72h-9.35c0-5.99-3.28-8.47-8.88-8.47c-5.51,0-8.71,2.87-8.71,8.95
	v8.79c0,6.08,3.2,8.96,8.71,8.96c5.6,0,8.88-2.4,8.88-8.39h9.35V46.37z"/>
</svg>
